PathFileType	4	(X/Y/Z)	C:/Users/beibeiliu/ov580/test_trc/User3\sequence.20_training_dense_right.trc
DataRate	CameraRate	NumFrames	NumMarkers	Units	OrigDataRate	OrigDataStartFrame	OrigNumFrames
120	120	14	19	mm	120	260	346
Frame#	Time	ThumbCMC			ThumbMCP			ThumbIP			ThumbTip			IndexMCP			IndexPIP			IndexTip			MiddleMCP			MiddlePIP			MiddleTip			RingMCP			RingPIP			RingTip			PinkyMCP			PinkyPIP			PinkyTip			BackHand1			BackHand2			BackHand3	
		X0	Y0	Z0	X1	Y1	Z1	X2	Y2	Z2	X3	Y3	Z3	X4	Y4	Z4	X5	Y5	Z5	X6	Y6	Z6	X7	Y7	Z7	X8	Y8	Z8	X9	Y9	Z9	X10	Y10	Z10	X11	Y11	Z11	X12	Y12	Z12	X13	Y13	Z13	X14	Y14	Z14	X15	Y15	Z15	X16	Y16	Z16	X17	Y17	Z17	X18	Y18	Z18	
259	2.15833	118.524	8.68749	-8.59387	95.9218	1.89423	-33.6571	80.123	-6.52884	-56.6415	76.0389	-27.915	-71.5195	129.311	-7.33823	-86.1963	101.734	-19.798	-96.2427	86.933	-18.9268	-65.7885	133.555	-30.8893	-89.3689	102.791	-37.7627	-92.0913	99.2185	-39.3941	-54.5504	137.236	-43.2817	-77.4119	111.005	-57.4104	-78.8583	104.487	-46.9206	-47.0869	142.022	-61.9901	-65.2654	113.07	-67.1346	-63.2274	109.688	-59.7287	-36.3952	169.111	-32.0913	-32.4564	171.825	-31.734	1.94439	155.101	3.15761	-16.09	
260	2.16667	125.762	6.083	-13.5214	100.072	1.95659	-33.1072	77.7534	-6.01938	-55.9398	65.4648	-31.0355	-67.2362	123.794	-32.2781	-85.6274	94.667	-36.6717	-94.0573	81.8956	-22.4856	-64.271	122.585	-49.1712	-81.9416	88.6024	-51.2614	-85.741	88.3524	-38.9091	-47.5781	117.829	-62.706	-70.3978	87.6499	-63.5486	-65.4167	93.4696	-47.8878	-35.4994	119.587	-78.3704	-54.9609	93.2194	-74.8146	-51.172	98.0941	-61.491	-25.0176	157.485	-52.6544	-26.1661	165.303	-44.9148	1.61475	159.4	-17.7699	-25.6025	
261	2.175	133.568	-2.04895	-16.6199	103.064	-2.04371	-38.4336	78.6939	-12.1677	-56.1943	65.0697	-33.8646	-57.5433	115.911	-43.6909	-81.8953	85.8976	-39.7584	-93.1546	76.0013	-23.786	-63.9184	106.812	-59.6266	-79.1939	75.1343	-55.014	-75.3085	83.6792	-35.0051	-40.3445	100.149	-71.8764	-62.2086	73.4393	-65.6213	-54.5744	87.294	-43.7165	-28.4963	104.114	-81.1455	-40.6331	76.4949	-72.2063	-38.8484	92.7971	-54.3078	-17.6136	146.79	-66.0569	-24.8453	159.001	-54.0747	1.40166	157.266	-30.6387	-25.5323	
262	2.18333	135.729	-6.46952	-21.2874	106.954	-0.194646	-35.029	79.966	-5.21746	-52.5389	60.1783	-26.5386	-52.5874	105.562	-48.4402	-80.4349	76.6376	-42.3507	-84.9553	71.3036	-20.3779	-59.8593	93.7001	-64.0817	-70.7614	63.9815	-49.2293	-67.4296	78.0501	-32.46	-37.0544	89.8006	-71.5634	-53.6513	63.5708	-55.8255	-47.1476	81.829	-40.8113	-21.8534	88.9415	-79.8505	-34.5225	66.4589	-65.5285	-33.0876	81.4505	-51.6527	-11.9502	136.814	-72.5209	-17.0852	153.821	-64.8359	3.75754	153.67	-42.5435	-28.0788	
263	2.19167	136.309	-9.06441	-21.0492	108.325	-0.360563	-35.6269	78.693	-5.52379	-50.7624	57.879	-20.1421	-48.4892	99.7462	-46.4917	-77.481	70.8973	-32.9673	-84.271	69.3268	-12.3777	-60.9674	87.0448	-60.4139	-65.9744	59.234	-43.8317	-66.4529	76.4453	-22.4593	-35.557	80.6196	-66.9566	-50.9748	54.9548	-51.3825	-42.5015	73.4554	-34.9373	-19.7583	80.6408	-75.6604	-28.6228	59.591	-57.407	-28.3407	75.4619	-41.5121	-9.24569	129.31	-71.8663	-17.1304	148.333	-66.9179	4.96888	149.794	-43.5325	-24.3856	
264	2.2	140.404	-5.14106	-16.8904	110.699	3.04515	-31.1675	79.1684	1.23685	-47.6757	59.8431	-12.1095	-42.081	93.6056	-41.2768	-74.3882	68.7544	-25.3621	-81.3322	68.6499	-5.79282	-55.7357	80.1413	-53.9736	-64.9068	53.8118	-34.6268	-63.2867	74.4114	-17.234	-31.5941	74.5074	-62.1014	-46.6666	51.7432	-39.7623	-43.8712	72.522	-26.564	-17.9745	75.7258	-66.7148	-27.7666	54.6084	-47.7769	-28.2494	74.7452	-33.3585	-7.99828	121.782	-71.3548	-13.6396	140.831	-66.1133	3.59743	146.187	-44.2463	-23.9689	
265	2.20833	137.503	-7.59356	-15.935	110.066	7.23065	-30.867	80.0488	10.0149	-45.0126	55.7247	-4.4846	-40.1815	90.9998	-34.0938	-70.238	64.6379	-16.193	-76.7083	70.6471	5.60492	-50.2472	74.5435	-44.6295	-65.6773	52.5747	-24.0389	-61.9658	70.7892	-10.914	-29.8463	69.6055	-50.7926	-46.9887	47.1093	-30.1885	-38.1	66.069	-16.6315	-18.4541	67.1914	-60.8818	-26.8717	50.5477	-40.8273	-27.1813	68.6756	-27.4465	-3.269	113.26	-66.5486	-17.2953	139.426	-65.6164	6.00411	143.684	-42.7427	-25.2261	
266	2.21667	139.332	-1.2424	-16.4445	113.035	13.1327	-26.5053	84.9993	16.3767	-38.085	56.4813	6.56624	-35.0428	90.8612	-25.662	-65.9262	63.4672	-2.72067	-72.0206	71.5915	13.4495	-46.3147	70.5731	-34.6535	-61.8537	50.3083	-10.2237	-57.8298	73.1965	2.7522	-28.9596	67.4488	-40.2093	-46.0251	45.4015	-23.0089	-36.2617	68.2462	-7.69613	-14.3348	68.7816	-49.6431	-23.2715	46.2033	-29.9818	-20.6591	67.7133	-13.4219	-2.68098	111.76	-61.8232	-15.9974	130.895	-62.0103	3.90708	139.583	-39.7389	-21.7645	
267	2.225	142.098	-0.861116	-9.76705	116.134	18.9532	-25.2883	87.6542	26.2242	-34.8726	63.056	15.6561	-28.4317	91.3809	-13.0303	-68.0208	63.8709	3.7626	-68.7233	76.8976	21.4443	-39.4798	71.912	-22.7887	-61.3133	51.1991	-0.0937348	-53.4888	73.769	9.80549	-24.4383	64.6051	-31.9238	-43.8541	47.8177	-7.15759	-35.5615	72.3015	2.05996	-12.5399	65.6345	-40.1296	-22.1216	46.3713	-19.9588	-19.0326	68.7448	-7.19416	2.3653	107.197	-56.0901	-17.6191	129.773	-60.6074	3.04709	137.073	-35.3295	-25.1443	
268	2.23333	147.813	4.50323	-9.76119	120.833	28.4763	-25.0914	94.6203	34.647	-31.1545	65.011	22.6138	-26.5975	88.2268	-7.7334	-66.6269	68.5332	17.8213	-67.7012	81.2169	30.1069	-40.7987	72.0858	-15.0322	-59.0147	54.9618	10.2922	-54.8902	77.7462	13.0787	-19.7541	65.7788	-21.9813	-44.8699	50.2917	2.6458	-34.2935	73.1117	9.15527	-12.1063	64.0393	-33.1853	-21.83	50.1098	-7.3075	-17.0123	69.6573	-1.23915	7.25716	107.731	-48.583	-18.5046	128.928	-56.2666	6.30723	142.305	-30.6772	-21.8437	
269	2.24167	147.516	5.68828	-9.83942	127.174	29.8404	-24.2407	99.1424	40.8973	-32.1999	73.1383	29.7052	-25.2942	96.5376	1.37204	-67.6728	71.7607	23.8642	-65.8731	83.7004	34.4312	-39.7958	79.881	-7.22219	-60.4334	57.3066	17.6897	-51.5377	81.7415	18.8017	-19.7955	70.1354	-17.2077	-42.4664	53.2342	8.2665	-35.8339	75.2181	15.1636	-11.6322	64.3716	-26.3859	-22.8476	53.8343	-1.16657	-16.8011	73.7154	1.97626	6.34271	110.366	-45.0602	-20.136	130.095	-52.81	0.38022	143.75	-27.3141	-24.3276	
270	2.25	157.009	9.55452	-13.1794	137.413	35.2338	-25.5108	109.883	42.7664	-32.3461	84.1059	32.7772	-26.2111	100.785	2.15049	-67.4903	78.2119	26.7862	-67.6168	90.5211	38.7791	-41.8508	84.9623	-2.9968	-63.6293	64.2104	21.3582	-57.0756	91.0475	26.253	-24.0253	73.8288	-10.4019	-45.3576	61.3983	16.6554	-34.7075	85.7358	17.7321	-11.6539	70.6299	-21.678	-24.9363	58.2023	2.83882	-18.3983	81.1515	6.52493	0.821077	116.105	-41.3401	-17.9533	137.189	-50.7096	0.919649	148.832	-28.6149	-23.2218	
271	2.25833	163.319	9.59818	-12.5852	144.802	36.6554	-28.2373	117.795	48.4635	-37.393	90.936	34.9818	-30.7004	109.617	5.57048	-69.7476	87.7473	29.4888	-73.4783	100.101	40.2571	-42.0956	91.38	-1.19903	-64.9343	70.8486	24.0587	-60.5178	92.7712	28.137	-27.9112	81.7098	-8.79429	-47.4805	65.2627	16.203	-36.545	89.3868	20.4142	-14.7431	77.9022	-16.6561	-28.6452	66.6633	8.94233	-20.0183	87.4252	9.63443	-0.181265	119.423	-39.8804	-24.7375	137.24	-50.3881	3.98791	154.088	-26.7651	-25.8764	
272	2.26667	166.556	8.85019	-15.7153	150.372	32.6448	-30.7015	123.176	43.3168	-41.8532	99.8734	37.5051	-34.8376	119.408	6.07162	-73.3001	94.9152	28.8561	-77.7096	105.874	43.7221	-50.6237	94.712	-2.24967	-68.8082	79.2362	26.5461	-63.9224	103.34	26.9113	-29.67	89.9918	-7.90421	-52.162	71.2752	18.6618	-41.951	93.5635	22.3731	-20.3532	79.9372	-13.5312	-33.8096	71.9668	10.7767	-23.9331	92.8718	6.64509	-1.84116	124.124	-37.6977	-24.1541	141.019	-50.003	-1.75825	154.912	-28.7538	-24.3296	
